<?xml version="1.0" encoding="UTF-8"?>
<svg id="Layer_1" data-name="Layer 1" xmlns="http://www.w3.org/2000/svg" viewBox="0 0 1786.16 1843.24">
  <defs>
    <style>
      .cls-1, .cls-2 {
        stroke-width: 10px;
      }

      .cls-1, .cls-2, .cls-3, .cls-4, .cls-5, .cls-6, .cls-7, .cls-8, .cls-9, .cls-10, .cls-11 {
        stroke-miterlimit: 10;
      }

      .cls-1, .cls-2, .cls-3, .cls-4, .cls-5, .cls-6, .cls-7, .cls-8, .cls-11 {
        stroke: #000;
      }

      .cls-1, .cls-3, .cls-5, .cls-10, .cls-11 {
        fill: #fcee21;
      }

      .cls-2, .cls-4, .cls-6, .cls-7, .cls-8, .cls-9 {
        fill: #2e3192;
      }

      .cls-3 {
        opacity: .31;
      }

      .cls-3, .cls-7, .cls-11 {
        stroke-width: 3px;
      }

      .cls-4 {
        font-family: SegoeUIVariable-BoldSmall, 'Segoe UI Variable';
        font-size: 91px;
        font-variation-settings: 'wght' 700, 'opsz' 8;
        font-weight: 700;
      }

      .cls-5, .cls-6 {
        stroke-width: .75px;
      }

      .cls-8 {
        stroke-width: 4px;
      }

      .cls-9 {
        stroke: #fcee21;
      }

      .cls-9, .cls-10 {
        stroke-width: 7px;
      }

      .cls-10 {
        stroke: #2e3192;
      }
    </style>
  </defs>
  <path class="cls-7" d="M935.65,78.39V1747.27s296.59,20.86,560.68-197.02c183.83-151.66,302.44-421.05,286.98-721.53-12.77-248.17-190.47-514.72-423.78-645.7-195.1-109.53-423.88-104.63-423.88-104.63Z"/>
  <path class="cls-1" d="M990.71,1474.42l100.85-80.22s89.96-62.25,168.09-99.02c78.13-36.77,235.91-105.7,241.28-112.6,5.36-6.89,136.34-72.77,137.87-223.66,1.53-150.89,10.72-434.3,10.72-434.3l-35.23,42.13s-87.32,88.09-156.26,114.13c-68.94,26.04-284.52,146.05-284.52,146.05,0,0-175.06,79.14-180.42,308.17-5.36,229.02-2.38,339.32-2.38,339.32Z"/>
  <path class="cls-6" d="M1030.63,1320.39s.71,3.68,59.74-52.09c56.68-53.54,272.68-154.72,272.68-154.72,0,0,131.74-72.77,166.98-130.21,35.23-57.45,45.19-123.25,45.19-123.25,0,0-40.39,59.93-91.79,101.89-43.57,35.57-100.74,71.17-146.42,91.9-49.56,22.49-108.99,51.16-152.43,80.43-43.83,29.53-71.52,54.28-91.91,75.83-40.6,42.89-62.04,110.22-62.04,110.22Z"/>
  <path class="cls-6" d="M1020.67,1151.88s.71,3.68,59.74-52.09c56.68-53.54,272.68-154.72,272.68-154.72,0,0,131.74-72.77,166.98-130.21,35.23-57.45,45.19-123.25,45.19-123.25,0,0-40.39,59.93-91.79,101.89-43.57,35.57-100.74,71.17-146.42,91.9-49.56,22.49-108.99,51.16-152.43,80.43-43.83,29.53-71.52,54.28-91.91,75.83-40.6,42.89-62.04,110.22-62.04,110.22Z"/>
  <path class="cls-2" d="M856.92,1474.42l-102.74-80.22s-91.64-62.25-171.23-99.02c-79.59-36.77-240.33-105.7-245.8-112.6s-138.89-72.77-140.45-223.66c-1.56-150.89-10.92-434.3-10.92-434.3l35.89,42.13s88.95,88.09,159.18,114.13c70.23,26.04,289.85,146.05,289.85,146.05,0,0,178.34,79.14,183.8,308.17,5.46,229.02,2.43,339.32,2.43,339.32Z"/>
  <path class="cls-5" d="M816.26,1320.39s-.73,3.68-60.86-52.09c-57.74-53.54-277.79-154.72-277.79-154.72,0,0-134.21-72.77-170.11-130.21-35.89-57.45-46.04-123.25-46.04-123.25,0,0,41.15,59.93,93.51,101.89,44.39,35.57,102.63,71.17,149.17,91.9,50.49,22.49,111.04,51.16,155.28,80.43,44.65,29.53,72.86,54.28,93.64,75.83,41.36,42.89,63.2,110.22,63.2,110.22Z"/>
  <path class="cls-5" d="M826.4,1151.88s-.73,3.68-60.86-52.09c-57.74-53.54-277.79-154.72-277.79-154.72,0,0-134.21-72.77-170.11-130.21-35.89-57.45-46.04-123.25-46.04-123.25,0,0,41.15,59.93,93.51,101.89,44.39,35.57,102.63,71.17,149.17,91.9,50.49,22.49,111.04,51.16,155.28,80.43,44.65,29.53,72.86,54.28,93.64,75.83,41.36,42.89,63.2,110.22,63.2,110.22Z"/>
  <path class="cls-8" d="M885.09,681.66s-147.83-26.81-204.51-72c-47.86-38.16-82.72-89.62-32.94-144,49.79-54.38,142.47-117.96,142.47-117.96,0,0-62.81,86.55-64.34,109.53s30.64,36,30.64,36c0,0,23.74,16.85,29.87-3.83,1.81-6.1,25.51-54.47,47.49-73.53,45.04-39.06,67.4-101.11,68.17-124.09,.77-22.98-16.85-108.77-16.85-108.77l92.68,75.06s69.7,76.6,48.26,149.36c-21.45,72.77-109.37,90.08-109.37,90.08,0,0-48.53,16.09-66.03,44.73q-16.85,27.57-18.38,46.72c-1.53,19.15,15.32,48.26,21.45,58.21s31.4,34.47,31.4,34.47Z"/>
  <path class="cls-11" d="M982.97,681.66c-.34-1.02,3.4-17.02,17.36-30.64,8.18-7.98,28.6-24.17,62.64-34.04,32.81-9.51,48.62-29.24,49.72-46.98,1.33-21.29,2.87-40.85-1.04-79.66-3.66-36.34-24.51-73.53-24.51-73.53,0,0-13.62,38.13-23.83,55.15-21.79,44.26-87.5,43.69-110.98,80.51-7.49,11.74-10.02,41.7-8.85,57.7,1.09,14.98,10.74,36.67,19.4,47.66,6.75,8.56,20.09,23.83,20.09,23.83Z"/>
  <path class="cls-11" d="M931.69,220.21s16.34,4.09,42.55,28.26c24.22,22.34,40.98,35.13,58.55,81.45,17.57,46.32,22.57,88.18-19.06,122.47s-77.96,39.83-77.96,39.83l-4.09-272Z"/>
  <path class="cls-3" d="M880.08,722.51h85.39c27.37-12.26,19.42,26.2,19.2,30.64l-41.87,907.91c-.49,9.8-25.83,8.72-26.38-1.08l-44.09-929.28c-.25-4.45,3.29-8.2,7.75-8.2Z"/>
  <path class="cls-9" d="M929.11,728.64v939.26l8.98-1.3,4.21-3.54,1.02-13.42,2.25-48.8,20.98-454.98s19.51-390.31,19.35-396.61c-.16-6.29-1.41-26.72-31.03-26.72s-24.68,0-24.68,0l-1.09,6.13Z"/>
  <path class="cls-10" d="M924.52,728.64v939.26l-8.7-1.3-4.07-3.54-.99-13.42-2.18-48.8-20.33-454.98s-18.9-390.31-18.75-396.61,1.37-26.72,30.06-26.72,23.91,0,23.91,0l1.05,6.13Z"/>
  <text class="cls-4" transform="translate(839.31 1815.15)"><tspan x="0" y="0">1940</tspan></text>
  <text class="cls-4" transform="translate(701.83 1736.66) rotate(-167.38)"><tspan x="0" y="0">І</tspan></text>
  <text class="cls-4" transform="translate(674.22 1730.8) rotate(-162.9)"><tspan x="0" y="0">з</tspan></text>
  <text class="cls-4" transform="translate(632.13 1718.56) rotate(-156.96)"><tspan x="0" y="0">м</tspan></text>
  <text class="cls-4" transform="translate(567.32 1690.45) rotate(-151.82)"><tspan x="0" y="0">а</tspan></text>
  <text class="cls-4" transform="translate(523.67 1666.73) rotate(-149)"><tspan x="0" y="0">ї</tspan></text>
  <text class="cls-4" transform="translate(501.4 1653.78) rotate(-146.24)"><tspan x="0" y="0">л</tspan></text>
  <text class="cls-4" transform="translate(455.44 1622.98) rotate(-142.93)"><tspan x="0" y="0">ь</tspan></text>
  <text class="cls-4" transform="translate(414.48 1591.94) rotate(-140.16)"><tspan x="0" y="0">с</tspan></text>
  <text class="cls-4" transform="translate(379.97 1563.25) rotate(-137.52)"><tspan x="0" y="0">ь</tspan></text>
  <text class="cls-4" transform="translate(342.04 1528.54) rotate(-134.79)"><tspan x="0" y="0">к</tspan></text>
  <text class="cls-4" transform="translate(305.81 1492.19) rotate(-131.91)"><tspan x="0" y="0">и</tspan></text>
  <text class="cls-4" transform="translate(267.28 1449.32) rotate(-128.8)"><tspan x="0" y="0">й</tspan></text>
  <text class="cls-4" transform="translate(231.27 1404.02) rotate(-126.47)"><tspan x="0" y="0"> </tspan></text>
  <text class="cls-4" transform="translate(216.59 1384.17) rotate(-125.01)"><tspan x="0" y="0"> </tspan></text>
  <text class="cls-4" transform="translate(202.24 1364.38) rotate(-122.46)"><tspan x="0" y="0">д</tspan></text>
  <text class="cls-4" transform="translate(171.78 1316.4) rotate(-118.74)"><tspan x="0" y="0">е</tspan></text>
  <text class="cls-4" transform="translate(147.66 1272.9) rotate(-114.42)"><tspan x="0" y="0">р</tspan></text>
  <text class="cls-4" transform="translate(123.57 1222) rotate(-107.68)"><tspan x="0" y="0">ж</tspan></text>
  <text class="cls-4" transform="translate(101.25 1148.63) rotate(-100.15)"><tspan x="0" y="0">а</tspan></text>
  <text class="cls-4" transform="translate(92.43 1099.62) rotate(-97.74)"><tspan x="0" y="0">в</tspan></text>
  <text class="cls-4" transform="translate(85.19 1046.75) rotate(-95.15)"><tspan x="0" y="0">н</tspan></text>
  <text class="cls-4" transform="translate(80.09 990.57) rotate(-92.39)"><tspan x="0" y="0">и</tspan></text>
  <text class="cls-4" transform="translate(77.65 932.92) rotate(-89.51)"><tspan x="0" y="0">й</tspan></text>
  <text class="cls-4" transform="translate(78.44 875.04) rotate(-87.38)"><tspan x="0" y="0"> </tspan></text>
  <text class="cls-4" transform="translate(79.56 850.3) rotate(-86.06)"><tspan x="0" y="0"> </tspan></text>
  <text class="cls-4" transform="translate(81.26 825.62) rotate(-84.7)"><tspan x="0" y="0"> </tspan></text>
  <text class="cls-4" transform="translate(83.42 801.08) rotate(-82.91)"><tspan x="0" y="0">г</tspan></text>
  <text class="cls-4" transform="translate(87.94 763.39) rotate(-80.28)"><tspan x="0" y="0">у</tspan></text>
  <text class="cls-4" transform="translate(95.85 714.57) rotate(-76.34)"><tspan x="0" y="0">м</tspan></text>
  <text class="cls-4" transform="translate(112.89 645.82) rotate(-71.88)"><tspan x="0" y="0">а</tspan></text>
  <text class="cls-4" transform="translate(128 598.93) rotate(-67.35)"><tspan x="0" y="0">н</tspan></text>
  <text class="cls-4" transform="translate(150 547.38) rotate(-63.29)"><tspan x="0" y="0">і</tspan></text>
  <text class="cls-4" transform="translate(161.45 523.93) rotate(-59.47)"><tspan x="0" y="0">т</tspan></text>
  <text class="cls-4" transform="translate(182.78 488.12) rotate(-55.43)"><tspan x="0" y="0">а</tspan></text>
  <text class="cls-4" transform="translate(210.93 447.06) rotate(-52.98)"><tspan x="0" y="0">р</tspan></text>
  <text class="cls-4" transform="translate(245.34 401.37) rotate(-50.04)"><tspan x="0" y="0">н</tspan></text>
  <text class="cls-4" transform="translate(281.44 358.19) rotate(-46.75)"><tspan x="0" y="0">и</tspan></text>
  <text class="cls-4" transform="translate(320.81 316.25) rotate(-43.09)"><tspan x="0" y="0">й</tspan></text>
  <text class="cls-4" transform="translate(363.22 277.11) rotate(-40.29)"><tspan x="0" y="0"> </tspan></text>
  <text class="cls-4" transform="translate(382 261.17) rotate(-38.56)"><tspan x="0" y="0"> </tspan></text>
  <text class="cls-4" transform="translate(401.27 245.81) rotate(-36.78)"><tspan x="0" y="0"> </tspan></text>
  <text class="cls-4" transform="translate(420.6 230.95) rotate(-34.06)"><tspan x="0" y="0">у</tspan></text>
  <text class="cls-4" transform="translate(461.48 203.13) rotate(-30.13)"><tspan x="0" y="0">н</tspan></text>
  <text class="cls-4" transform="translate(510.38 175.2) rotate(-27.06)"><tspan x="0" y="0">і</tspan></text>
  <text class="cls-4" transform="translate(533.69 162.89) rotate(-24.14)"><tspan x="0" y="0">в</tspan></text>
  <text class="cls-4" transform="translate(581.98 141.09) rotate(-20.13)"><tspan x="0" y="0">е</tspan></text>
  <text class="cls-4" transform="translate(628.79 123.63) rotate(-16.68)"><tspan x="0" y="0">р</tspan></text>
  <text class="cls-4" transform="translate(683.53 107.41) rotate(-13.28)"><tspan x="0" y="0">с</tspan></text>
  <text class="cls-4" transform="translate(727.01 96.94) rotate(-10.03)"><tspan x="0" y="0">и</tspan></text>
  <text class="cls-4" transform="translate(783.82 87.09) rotate(-6.97)"><tspan x="0" y="0">т</tspan></text>
  <text class="cls-4" transform="translate(825.5 81.87) rotate(-4.12)"><tspan x="0" y="0">е</tspan></text>
  <text class="cls-4" transform="translate(875.4 78.32) rotate(-.98)"><tspan x="0" y="0">т</tspan></text>
</svg>